<?xml version="1.0" encoding="iso-8859-1"?>
<!-- Generator: Adobe Illustrator 19.0.0, SVG Export Plug-In . SVG Version: 6.00 Build 0)  -->
<svg version="1.1" id="Layer_1" xmlns="http://www.w3.org/2000/svg" xmlns:xlink="http://www.w3.org/1999/xlink" x="0px" y="0px"
	 viewBox="0 0 512 512" style="enable-background:new 0 0 512 512;" xml:space="preserve">
<polygon style="fill:#546A79;" points="458.572,8.024 458.572,503.145 357.297,503.145 357.297,390.618 357.297,109.299 
	357.297,8.024 "/>
<g>
	<polygon style="fill:#AFB6BB;" points="357.297,503.145 53.473,503.145 53.473,390.618 233.517,390.618 357.297,390.618 	"/>
	<rect x="53.473" y="8.024" style="fill:#AFB6BB;" width="303.824" height="101.275"/>
</g>
<path style="fill:#36C63F;" d="M357.297,109.299v281.319h-123.78V261.211h50.637c0,0,33.758-5.626,33.758-39.385v-28.132H244.77
	c0,0-11.253-45.011-50.637-45.011s-73.143,45.011-73.143,45.011v78.769l-67.516,33.758V109.299L357.297,109.299L357.297,109.299z"/>
<path style="fill:#A26234;" d="M120.99,272.464v-78.769c0,0,33.758-45.011,73.143-45.011s50.637,45.011,50.637,45.011h73.143v28.132
	c0,33.758-33.758,39.385-33.758,39.385h-50.637v129.407H53.473v-84.396L120.99,272.464z"/>
<g>
	<rect x="53.473" y="8.024" style="fill:#9CA2A7;" width="157.538" height="101.275"/>
	<rect x="53.473" y="390.617" style="fill:#9CA2A7;" width="157.538" height="112.527"/>
</g>
<path d="M466.989,329.141V0H45.011v512h421.978V362.9H450.11v132.221h-84.396V16.879h33.758v351.648h16.879V16.879h33.758v312.261
	H466.989z M348.835,16.879v84.396h-256v16.879h256v264.44H61.89v-70.74l50.637-25.319v20.103c0,8.607,6.57,30.945,36.571,30.945
	h36.571V233.495h-16.879v87.209h-19.692c-8.289,0-14.06-2.296-17.155-6.821c-2.296-3.359-2.521-6.995-2.537-7.336V197.052
	c2.963-3.608,9.659-11.298,18.799-18.993c11.118-9.361,28.106-20.52,45.904-20.52c32.203,0,42.052,37.062,42.45,38.618l1.599,6.393
	h71.292v19.692c0,10.817-4.269,19.241-12.687,25.036c-5.73,3.944-11.676,5.504-13.473,5.909h-58.235v98.462h16.879v-81.582h42.897
	l0.689-0.115c14.115-2.353,40.81-15.352,40.81-47.709V185.67h-75.46c-1.806-4.848-4.904-11.846-9.718-18.847
	c-11.767-17.117-28.034-26.164-47.042-26.164c-43.109,0-78.414,46.411-79.895,48.387l-1.688,2.251v76.367L61.89,292.982V16.879
	H348.835z M61.89,495.121v-95.648h286.945v39.385H239.121v16.879h109.714v39.385H61.89z"/>
<rect x="92.835" y="438.857" style="fill:#FFFFFF;" width="39.385" height="16.879"/>
<rect x="160.352" y="438.857" width="39.385" height="16.879"/>
<rect x="92.835" y="50.637" style="fill:#FFFFFF;" width="225.055" height="16.879"/>
<rect x="391.033" y="399.473" width="33.758" height="16.879"/>
<rect x="272.879" y="337.582" style="fill:#FFFFFF;" width="45.011" height="16.879"/>
<g>
</g>
<g>
</g>
<g>
</g>
<g>
</g>
<g>
</g>
<g>
</g>
<g>
</g>
<g>
</g>
<g>
</g>
<g>
</g>
<g>
</g>
<g>
</g>
<g>
</g>
<g>
</g>
<g>
</g>
</svg>
