<?xml version="1.0" encoding="iso-8859-1"?>
<!-- Generator: Adobe Illustrator 19.0.0, SVG Export Plug-In . SVG Version: 6.00 Build 0)  -->
<svg version="1.1" id="Layer_1" xmlns="http://www.w3.org/2000/svg" xmlns:xlink="http://www.w3.org/1999/xlink" x="0px" y="0px"
	 viewBox="0 0 512.001 512.001" style="enable-background:new 0 0 512.001 512.001;" xml:space="preserve">
<g>
	<path style="fill:#6BADB4;" d="M358.619,397.238l35.044,48.236C354.964,473.45,307.408,489.94,256,489.94v-59.376
		C294.354,430.564,329.813,418.203,358.619,397.238z"/>
	<path style="fill:#6BADB4;" d="M153.381,397.238l-35.044,48.236c-39.68-28.679-70.054-69.443-85.737-116.884l57.335-18.635
		C101.431,345.346,123.918,375.79,153.381,397.238z"/>
	<path style="fill:#6BADB4;" d="M117.103,64.819l36.278,49.943c-29.463,21.449-51.95,51.892-63.446,87.282l-58.096-18.877
		C47.118,135.207,77.377,93.924,117.103,64.819z"/>
	<path style="fill:#6BADB4;" d="M394.897,64.819l-36.278,49.943C329.813,93.797,294.354,81.436,256,81.436V19.454
		C307.961,19.454,355.978,36.29,394.897,64.819z"/>
	<path style="fill:#6BADB4;" d="M480.161,183.167c7.196,22.556,11.082,46.587,11.082,71.53c0,25.808-4.163,50.658-11.843,73.894
		l-57.335-18.635c5.524-16.997,8.499-35.125,8.499-53.956s-2.975-36.959-8.499-53.956L480.161,183.167z"/>
</g>
<g>
	<path style="fill:#0E4675;" d="M422.066,309.956l57.335,18.635c-15.683,47.441-46.057,88.205-85.737,116.884l-35.044-48.236
		C388.082,375.79,410.569,345.346,422.066,309.956z"/>
	<path style="fill:#0E4675;" d="M256,430.564v59.376c-51.408,0-98.964-16.49-137.663-44.466l35.044-48.236
		C182.187,418.191,217.646,430.564,256,430.564z"/>
	<path style="fill:#0E4675;" d="M31.839,183.167l58.096,18.877c-5.524,16.997-8.499,35.125-8.499,53.956s2.975,36.959,8.499,53.956
		L32.6,328.591c-7.68-23.236-11.843-48.086-11.843-73.894C20.757,229.754,24.643,205.723,31.839,183.167z"/>
	<path style="fill:#0E4675;" d="M256,19.454v61.982c-38.354,0-73.813,12.362-102.619,33.326l-36.278-49.943
		C156.022,36.29,204.039,19.454,256,19.454z"/>
	<path style="fill:#0E4675;" d="M480.161,183.167l-58.096,18.877c-11.497-35.39-33.983-65.834-63.446-87.282l36.278-49.943
		C434.623,93.924,464.882,135.207,480.161,183.167z"/>
</g>
<g>
	<path style="fill:#83C7C3;" d="M256.001,99.462c-6.369,0-11.532-5.163-11.532-11.532V20.625c0-6.369,5.163-11.532,11.532-11.532
		c6.369,0,11.532,5.163,11.532,11.532V87.93C267.532,94.299,262.369,99.462,256.001,99.462z"/>
	<path style="fill:#83C7C3;" d="M157.221,131.561c-3.567,0-7.083-1.648-9.339-4.754l-39.56-54.451
		c-3.743-5.152-2.6-12.364,2.551-16.107c5.155-3.742,12.364-2.6,16.107,2.551l39.561,54.451c3.743,5.152,2.602,12.364-2.551,16.107
		C161.943,130.845,159.571,131.561,157.221,131.561z"/>
	<path style="fill:#83C7C3;" d="M96.159,215.598c-1.181,0-2.381-0.183-3.566-0.567l-64.012-20.799
		c-6.056-1.968-9.372-8.475-7.403-14.531c1.968-6.058,8.475-9.371,14.531-7.403l64.012,20.799c6.056,1.968,9.372,8.475,7.403,14.531
		C105.54,212.5,101.02,215.598,96.159,215.598z"/>
	<path style="fill:#83C7C3;" d="M32.143,340.269c-4.861,0-9.382-3.097-10.965-7.971c-1.967-6.057,1.347-12.562,7.403-14.531
		l64.012-20.798c6.06-1.966,12.564,1.347,14.531,7.404c1.968,6.057-1.347,12.562-7.403,14.531l-64.012,20.798
		C34.525,340.086,33.324,340.269,32.143,340.269z"/>
	<path style="fill:#83C7C3;" d="M117.64,457.954c-2.35,0-4.722-0.716-6.769-2.203c-5.152-3.744-6.294-10.955-2.551-16.107
		l39.561-54.451c3.744-5.151,10.956-6.294,16.107-2.551c5.152,3.744,6.295,10.955,2.551,16.107l-39.561,54.451
		C124.723,456.305,121.206,457.954,117.64,457.954z"/>
	<path style="fill:#83C7C3;" d="M256,502.906c-6.369,0-11.532-5.163-11.532-11.532V424.07c0-6.369,5.163-11.532,11.532-11.532
		s11.533,5.163,11.533,11.532v67.305C267.532,497.744,262.369,502.906,256,502.906z"/>
	<path style="fill:#83C7C3;" d="M394.359,457.954c-3.566,0-7.083-1.648-9.338-4.753l-39.561-54.451
		c-3.744-5.152-2.602-12.364,2.551-16.107c5.151-3.742,12.364-2.603,16.107,2.551l39.561,54.451
		c3.744,5.152,2.602,12.364-2.551,16.107C399.081,457.239,396.709,457.954,394.359,457.954z"/>
	<path style="fill:#83C7C3;" d="M479.857,340.27c-1.181,0-2.381-0.183-3.566-0.567l-64.012-20.799
		c-6.057-1.968-9.372-8.475-7.404-14.531c1.967-6.057,8.476-9.371,14.531-7.403l64.012,20.799c6.057,1.968,9.372,8.475,7.404,14.531
		C489.239,337.172,484.718,340.27,479.857,340.27z"/>
	<path style="fill:#83C7C3;" d="M415.841,215.599c-4.862,0-9.382-3.097-10.965-7.972c-1.967-6.058,1.347-12.562,7.404-14.531
		l64.012-20.798c6.058-1.968,12.561,1.347,14.531,7.403c1.967,6.058-1.347,12.562-7.404,14.531l-64.012,20.798
		C418.223,215.416,417.022,215.599,415.841,215.599z"/>
	<path style="fill:#83C7C3;" d="M354.78,131.561c-2.351,0-4.722-0.716-6.769-2.203c-5.152-3.744-6.295-10.955-2.551-16.107
		L385.022,58.8c3.744-5.153,10.956-6.293,16.107-2.551c5.152,3.744,6.295,10.955,2.551,16.107l-39.561,54.451
		C361.863,129.913,358.346,131.561,354.78,131.561z"/>
</g>
<path style="fill:#C6F2EA;" d="M434.739,256c0,98.711-80.025,178.735-178.735,178.735c-98.718,0-178.742-80.024-178.742-178.735
	c0-98.71,80.024-178.735,178.742-178.735C354.713,77.265,434.739,157.29,434.739,256z"/>
<path style="fill:#0E4675;" d="M256,239.675c-46.932-43.387-72.344,24.937-125.051-3.592c6.377,33.078,80.068,82.747,125.051,23.522
	c44.981,59.225,118.673,9.556,125.051-23.522C328.344,264.612,302.932,196.287,256,239.675z"/>
<g>
	<path style="fill:#000030;" d="M387.869,226.783c-3.593-2.636-8.385-2.962-12.306-0.842c-20.003,10.828-34.629,4.468-51.567-2.893
		c-18.528-8.052-41.191-17.9-67.997,1.684c-26.809-19.585-49.469-9.736-67.996-1.684c-16.938,7.362-31.566,13.72-51.566,2.893
		c-3.921-2.122-8.712-1.795-12.306,0.841c-3.596,2.636-5.349,7.107-4.505,11.483c4.764,24.71,34.461,50.847,66.2,58.264
		c6.352,1.484,12.584,2.218,18.656,2.218c19.297,0,36.95-7.417,51.519-21.706c19.15,18.784,43.625,25.691,70.172,19.488
		c31.739-7.416,61.439-33.553,66.204-58.264C393.218,233.889,391.466,229.418,387.869,226.783z M246.817,252.63
		c-18.377,24.193-40.457,25.015-55.743,21.443c-14.208-3.32-26.454-10.95-35.157-19.255c15.926,0.399,29.514-5.503,41.281-10.618
		c19.135-8.315,31.774-13.808,50.975,3.943c0.631,0.582,1.31,1.082,2.024,1.499C248.9,250.396,247.748,251.405,246.817,252.63z
		 M320.924,274.072c-15.283,3.571-37.366,2.75-55.74-21.443c-0.932-1.226-2.084-2.235-3.379-2.989
		c0.714-0.416,1.392-0.916,2.023-1.499c19.2-17.752,31.841-12.259,50.975-3.943c11.769,5.115,25.374,11.036,41.281,10.618
		C347.38,263.124,335.134,270.752,320.924,274.072z"/>
	<path style="fill:#000030;" d="M493.654,321.242c5.938-21.179,9.124-43.496,9.124-66.545c0-22.222-2.971-43.762-8.505-64.259
		c4.617-2.664,6.91-8.273,5.196-13.546c-1.701-5.236-6.792-8.416-12.055-7.912c-15.664-42.154-42.538-78.896-76.975-106.606
		c1.843-4.76,0.356-10.34-3.967-13.483c-4.293-3.118-10.012-2.834-13.967,0.326c-36.253-24.162-79.227-38.992-125.472-41.036
		C265.598,3.447,261.203,0,256.001,0c-5.203,0-9.598,3.447-11.033,8.182c-46.245,2.046-89.218,16.875-125.47,41.037
		c-3.954-3.162-9.673-3.446-13.969-0.327c-4.324,3.142-5.811,8.725-3.967,13.485C67.123,90.085,40.25,126.828,24.585,168.981
		c-5.262-0.502-10.353,2.675-12.055,7.911c-1.714,5.273,0.579,10.882,5.197,13.546c-5.534,20.497-8.505,42.037-8.505,64.259
		c0,23.049,3.186,45.366,9.124,66.545c-5.024,2.506-7.604,8.365-5.817,13.867c1.583,4.873,6.105,7.972,10.965,7.972
		c0.673,0,1.354-0.067,2.033-0.189c15.931,41.489,42.751,77.618,76.952,104.869c-3.119,5.081-1.859,11.784,3.047,15.348
		c2.047,1.488,4.419,2.203,6.769,2.203c3.296,0,6.535-1.424,8.79-4.088c35.795,23.462,78.022,37.88,123.419,39.973
		c0.377,6.029,5.371,10.805,11.495,10.805c6.123,0,11.119-4.776,11.496-10.805c45.396-2.092,87.624-16.509,123.42-39.972
		c2.256,2.665,5.495,4.088,8.789,4.088c2.35,0,4.723-0.716,6.769-2.203c4.904-3.563,6.165-10.265,3.047-15.347
		c34.201-27.251,61.023-63.381,76.953-104.87c0.679,0.122,1.36,0.189,2.033,0.189c4.861,0,9.382-3.099,10.965-7.971
		C501.257,329.607,498.679,323.748,493.654,321.242z M244.467,441.723v36.391c-40.31-2.057-77.831-14.841-109.773-35.534
		l21.495-29.585C182.004,429.464,212.134,439.735,244.467,441.723z M267.532,441.723c32.334-1.987,62.464-12.257,88.279-28.727
		l21.495,29.585c-31.942,20.693-69.465,33.477-109.774,35.533v-36.391H267.532z M256.003,419.028
		c-72.305,0-133.758-47.316-155.044-112.608c-0.005-0.014-0.007-0.028-0.012-0.042c-0.005-0.014-0.01-0.027-0.016-0.042
		c-5.162-15.862-7.964-32.777-7.964-50.337c0-17.559,2.802-34.472,7.963-50.333c0.006-0.016,0.012-0.031,0.017-0.047
		c0.005-0.013,0.006-0.025,0.01-0.039c21.286-65.292,82.739-112.61,155.045-112.61c72.3,0,133.748,47.314,155.036,112.601
		c0.005,0.016,0.008,0.032,0.013,0.048c0.007,0.021,0.015,0.039,0.022,0.059c5.158,15.856,7.958,32.766,7.958,50.32
		c0,17.559-2.802,34.475-7.964,50.336c-0.005,0.015-0.012,0.029-0.016,0.044c-0.005,0.015-0.007,0.029-0.012,0.045
		C389.753,371.713,328.305,419.028,256.003,419.028z M32.285,254.697c0-19.649,2.557-38.709,7.336-56.878l36.149,11.746
		c-3.827,14.848-5.865,30.409-5.865,46.435s2.036,31.587,5.865,46.435l-35.5,11.534C35.075,295.083,32.285,275.212,32.285,254.697z
		 M267.532,70.277V31.279c40.852,2.084,78.835,15.189,111.054,36.377l-22.775,31.347C329.996,82.533,299.867,72.263,267.532,70.277z
		 M244.47,70.277c-32.334,1.988-62.464,12.259-88.278,28.729l-22.776-31.347c32.219-21.187,70.203-34.292,111.054-36.377V70.277z
		 M436.23,209.565l36.149-11.746c4.78,18.168,7.336,37.23,7.336,56.877c0,20.515-2.791,40.386-7.986,59.272l-35.5-11.534
		c3.827-14.848,5.865-30.409,5.865-46.435S440.058,224.413,436.23,209.565z M465.355,175.852l-36.269,11.784
		c-11.663-29.424-30.621-55.19-54.632-75.055l22.73-31.285C427.53,106.051,451.276,138.595,465.355,175.852z M114.817,81.298
		l22.73,31.284c-24.011,19.865-42.969,45.63-54.632,75.053l-36.269-11.784C60.724,138.595,84.471,106.052,114.817,81.298z
		 M47.529,335.86l35.386-11.497c11.663,29.423,30.621,55.189,54.632,75.054l-21.535,29.641
		C85.728,404.698,61.895,372.635,47.529,335.86z M395.988,429.061l-21.535-29.641c24.011-19.865,42.969-45.631,54.632-75.055
		l35.386,11.497C450.105,372.636,426.272,404.699,395.988,429.061z"/>
</g>
<g>
</g>
<g>
</g>
<g>
</g>
<g>
</g>
<g>
</g>
<g>
</g>
<g>
</g>
<g>
</g>
<g>
</g>
<g>
</g>
<g>
</g>
<g>
</g>
<g>
</g>
<g>
</g>
<g>
</g>
</svg>
