<?xml version="1.0" encoding="iso-8859-1"?>
<!-- Generator: Adobe Illustrator 19.0.0, SVG Export Plug-In . SVG Version: 6.00 Build 0)  -->
<svg version="1.1" id="Layer_1" xmlns="http://www.w3.org/2000/svg" xmlns:xlink="http://www.w3.org/1999/xlink" x="0px" y="0px"
	 viewBox="0 0 512 512" style="enable-background:new 0 0 512 512;" xml:space="preserve">
<path style="fill:#FFD37D;" d="M256,11.584c-15.994,0-28.959,12.966-28.959,28.959s0,100.778,0,100.778h57.919
	c0,0,0-84.785,0-100.778S271.994,11.584,256,11.584z"/>
<path style="fill:#83C7C3;" d="M319.71,193.448L256,170.281l-63.71,23.167c-38.085,22.032-63.71,63.207-63.71,110.37
	c0,63.975,0,185.015,0,185.015c0,6.371,5.213,11.584,11.584,11.584h231.674c6.371,0,11.584-5.213,11.584-11.584
	c0,0,0-121.039,0-185.015C383.421,256.654,357.795,215.48,319.71,193.448z"/>
<path style="fill:#C6F2EA;" d="M174.914,290.288v140.626c0,12.742,10.425,23.167,23.167,23.167h115.837
	c12.742,0,23.167-10.425,23.167-23.167V290.288H174.914z"/>
<polygon style="fill:#9AE1D3;" points="275.692,170.281 236.308,170.281 236.308,290.288 256,313.455 275.692,290.288 "/>
<path style="fill:#FFFFFF;" d="M275.692,396.163h-8.109v-26.961c4.934-3.626,8.109-9.506,8.109-16.163v-62.751h-39.385v62.751
	c0,6.657,3.175,12.537,8.109,16.163v26.961h-8.109c-6.398,0-11.584,5.187-11.584,11.584c0,6.397,5.186,11.584,11.584,11.584h39.385
	c6.398,0,11.584-5.187,11.584-11.584C287.276,401.35,282.09,396.163,275.692,396.163z"/>
<rect x="192.29" y="118.154" style="fill:#3D7A94;" width="127.421" height="75.294"/>
<path style="fill:#000030;" d="M331.294,186.981v-68.827c0-6.397-5.187-11.584-11.584-11.584h-23.167V40.543
	C296.543,18.188,278.355,0,256,0s-40.543,18.188-40.543,40.543v66.027H192.29c-6.398,0-11.584,5.187-11.584,11.584v68.828
	c-39.456,25.491-63.71,69.638-63.71,116.836v185.015c0,12.775,10.393,23.167,23.167,23.167h231.674
	c12.775,0,23.167-10.393,23.167-23.167V303.818C395.005,256.621,370.751,212.473,331.294,186.981z M238.624,40.543
	c0-9.581,7.795-17.376,17.376-17.376c9.581,0,17.376,7.795,17.376,17.376v66.027h-34.751V40.543z M203.873,129.738h104.253v52.127
	H203.873V129.738z M264.109,353.039c0,4.693-3.556,8.368-8.097,8.373c-0.003,0-0.007,0-0.012,0c-0.005,0-0.007,0-0.012,0
	c-4.542-0.006-8.097-3.681-8.097-8.373v-51.166h16.217V353.039z M247.891,278.705v-73.674h16.217v73.674H247.891z M371.837,488.833
	H140.163V303.818c0-40.211,21.118-77.78,55.316-98.786h29.245v73.674h-49.81c-6.398,0-11.584,5.186-11.584,11.584v140.625
	c0,19.162,15.589,34.751,34.751,34.751h115.837c19.162,0,34.751-15.589,34.751-34.751v-47.368c0-6.397-5.187-11.584-11.584-11.584
	c-6.397,0-11.584,5.187-11.584,11.584v47.368c0,6.387-5.196,11.584-11.584,11.584H198.081c-6.387,0-11.584-5.196-11.584-11.584
	V301.873h38.226v51.166c0,13.266,8.167,24.636,19.692,29.289v13.834h-8.109c-6.398,0-11.584,5.187-11.584,11.584
	c0,6.397,5.186,11.584,11.584,11.584h39.385c6.398,0,11.584-5.187,11.584-11.584c0-6.397-5.186-11.584-11.584-11.584h-8.109v-13.834
	c11.526-4.653,19.692-16.024,19.692-29.289v-51.166h38.226v42.164c0,6.397,5.187,11.584,11.584,11.584
	c6.397,0,11.584-5.187,11.584-11.584v-53.747c0-6.398-5.187-11.584-11.584-11.584h-49.81v-73.674h29.245
	c34.197,21.006,55.316,58.575,55.316,98.786V488.833z"/>
<g>
</g>
<g>
</g>
<g>
</g>
<g>
</g>
<g>
</g>
<g>
</g>
<g>
</g>
<g>
</g>
<g>
</g>
<g>
</g>
<g>
</g>
<g>
</g>
<g>
</g>
<g>
</g>
<g>
</g>
</svg>
