<?xml version="1.0" encoding="iso-8859-1"?>
<!-- Generator: Adobe Illustrator 19.0.0, SVG Export Plug-In . SVG Version: 6.00 Build 0)  -->
<svg version="1.1" id="Layer_1" xmlns="http://www.w3.org/2000/svg" xmlns:xlink="http://www.w3.org/1999/xlink" x="0px" y="0px"
	 viewBox="0 0 512 512" style="enable-background:new 0 0 512 512;" xml:space="preserve">
<g>
	<path style="fill:#ED4850;" d="M256.486,8.499L256.486,8.499c-14.875,0-26.935,12.059-26.935,26.935v10.038h53.87V35.434
		C283.42,20.558,271.362,8.499,256.486,8.499z"/>
	<path style="fill:#ED4850;" d="M256.531,503.694L256.531,503.694c-12.973,0-23.489-10.516-23.489-23.489v-165.77h46.978v165.77
		C280.02,493.178,269.504,503.694,256.531,503.694z"/>
</g>
<g>
	<path style="fill:#E0273D;" d="M256.485,8.499L256.485,8.499c-2.935,0-5.758,0.476-8.403,1.344
		c10.76,3.531,18.532,13.651,18.532,25.591v10.038h16.806V35.434C283.42,20.558,271.362,8.499,256.485,8.499z"/>
	<path style="fill:#E0273D;" d="M263.214,314.434v165.77c0,10.007-6.27,18.53-15.086,21.914c2.613,1.003,5.438,1.575,8.403,1.575
		c12.973,0,23.489-10.516,23.489-23.489v-165.77H263.214z"/>
</g>
<path style="fill:#E6E7E8;" d="M283.512,315.64H229.55c-6.137,0-11.112-4.976-11.112-11.112V55.17
	c0-6.137,4.976-11.112,11.112-11.112h53.962c6.137,0,11.112,4.976,11.112,11.112v249.358
	C294.624,310.665,289.65,315.64,283.512,315.64z"/>
<path style="fill:#D1D3D4;" d="M283.512,44.058h-19.701c6.137,0,11.112,4.976,11.112,11.112v249.358
	c0,6.137-4.976,11.112-11.112,11.112h19.701c6.137,0,11.112-4.976,11.112-11.112V55.17C294.624,49.034,289.65,44.058,283.512,44.058
	z"/>
<circle cx="255.953" cy="68.758" r="8.403"/>
<circle cx="255.953" cy="101.922" r="8.403"/>
<circle cx="255.953" cy="133.393" r="8.403"/>
<circle cx="255.953" cy="164.036" r="8.403"/>
<circle cx="255.953" cy="197.188" r="8.403"/>
<circle cx="255.953" cy="228.671" r="8.403"/>
<circle cx="255.953" cy="257.319" r="8.403"/>
<circle cx="255.953" cy="288.802" r="8.403"/>
<path d="M346.378,110.322c4.642,0,8.403-3.762,8.403-8.403s-3.761-8.403-8.403-8.403h-43.882V78.845h43.882
	c4.642,0,8.403-3.762,8.403-8.403s-3.761-8.403-8.403-8.403h-43.882v-6.964c0-7.786-4.595-14.502-11.204-17.632v-2.105
	C291.292,15.852,275.44,0,255.954,0s-35.338,15.852-35.338,35.338v2.15c-6.56,3.148-11.112,9.837-11.112,17.587v6.964h-43.882
	c-4.642,0-8.403,3.762-8.403,8.403c0,4.641,3.761,8.403,8.403,8.403h43.882v14.671h-43.882c-4.642,0-8.403,3.762-8.403,8.403
	s3.761,8.403,8.403,8.403h43.882v14.671h-43.882c-4.642,0-8.403,3.762-8.403,8.403s3.761,8.403,8.403,8.403h43.882v14.671h-43.882
	c-4.642,0-8.403,3.762-8.403,8.403c0,4.641,3.761,8.403,8.403,8.403h43.882v14.671h-43.882c-4.642,0-8.403,3.762-8.403,8.403
	s3.761,8.403,8.403,8.403h43.882v14.671h-43.882c-4.642,0-8.403,3.762-8.403,8.403s3.761,8.403,8.403,8.403h43.882v14.671h-43.882
	c-4.642,0-8.403,3.762-8.403,8.403c0,4.641,3.761,8.403,8.403,8.403h43.882v14.671h-43.882c-4.642,0-8.403,3.762-8.403,8.403
	c0,4.641,3.761,8.403,8.403,8.403h43.882v5.245c0,9.062,6.217,16.678,14.604,18.865v156.813C224.108,497.694,238.416,512,256,512
	s31.892-14.306,31.892-31.892V350.961c0-4.641-3.761-8.403-8.403-8.403c-4.642,0-8.403,3.762-8.403,8.403v129.147
	c0,8.318-6.767,15.086-15.086,15.086c-8.319,0-15.086-6.768-15.086-15.086V323.946h42.067c10.76,0,19.515-8.754,19.515-19.515
	v-5.245h43.882c4.642,0,8.403-3.762,8.403-8.403c0-4.641-3.761-8.403-8.403-8.403h-43.882V267.71h43.882
	c4.642,0,8.403-3.762,8.403-8.403c0-4.641-3.761-8.403-8.403-8.403h-43.882v-14.671h43.882c4.642,0,8.403-3.762,8.403-8.403
	c0-4.641-3.761-8.403-8.403-8.403h-43.882v-14.671h43.882c4.642,0,8.403-3.762,8.403-8.403s-3.761-8.403-8.403-8.403h-43.882
	v-14.671h43.882c4.642,0,8.403-3.762,8.403-8.403s-3.761-8.403-8.403-8.403h-43.882v-14.671h43.882c4.642,0,8.403-3.762,8.403-8.403
	s-3.761-8.403-8.403-8.403h-43.882v-14.673H346.378z M237.422,35.338c0-10.219,8.313-18.532,18.532-18.532
	s18.532,8.313,18.532,18.532v0.221h-37.065V35.338z M285.69,304.432c0,1.493-1.216,2.709-2.709,2.709h-53.962
	c-1.493,0-2.709-1.215-2.709-2.709V55.075c0-1.493,1.216-2.709,2.709-2.709h53.87h0.092c1.493,0,2.709,1.216,2.709,2.709V304.432z"
	/>
<g>
</g>
<g>
</g>
<g>
</g>
<g>
</g>
<g>
</g>
<g>
</g>
<g>
</g>
<g>
</g>
<g>
</g>
<g>
</g>
<g>
</g>
<g>
</g>
<g>
</g>
<g>
</g>
<g>
</g>
</svg>
