<?xml version="1.0" encoding="iso-8859-1"?>
<!-- Generator: Adobe Illustrator 19.0.0, SVG Export Plug-In . SVG Version: 6.00 Build 0)  -->
<svg version="1.1" id="Layer_1" xmlns="http://www.w3.org/2000/svg" xmlns:xlink="http://www.w3.org/1999/xlink" x="0px" y="0px"
	 viewBox="0 0 512 512" style="enable-background:new 0 0 512 512;" xml:space="preserve">
<g>
	<path style="fill:#C6F2EA;" d="M305.728,19.362c-15.672-5.044-32.379-7.778-49.728-7.778c-89.565,0-162.172,72.607-162.172,162.172
		c0,17.349,2.735,34.056,7.778,49.728h23.167L305.728,19.362z"/>
	<path style="fill:#C6F2EA;" d="M358.729,48.272h-23.167L130.516,276.485c29.74,36.286,74.906,59.443,125.484,59.443
		c89.565,0,162.172-72.607,162.172-162.172C418.172,123.178,395.015,78.013,358.729,48.272z"/>
</g>
<rect x="237.466" y="381.428" style="fill:#0E4675;" width="37.068" height="118.988"/>
<path style="fill:#FFFFFF;" d="M101.607,223.483c6.291,19.546,16.185,37.476,28.908,53L358.729,48.272
	c-15.524-12.724-33.454-22.617-53-28.909L101.607,223.483z"/>
<g>
	<path style="fill:#000030;" d="M487.674,162.172h-11.9c-0.226-4.284-0.57-8.579-1.043-12.857
		c-0.702-6.357-6.425-10.944-12.786-10.241c-6.358,0.702-10.944,6.428-10.241,12.786c0.38,3.431,0.663,6.876,0.865,10.311h-23.21
		C423.378,71.745,347.916,0,256,0S88.622,71.745,82.639,162.172h-23.21c0.203-3.436,0.487-6.88,0.865-10.311
		c0.703-6.358-3.883-12.084-10.241-12.786c-6.362-0.7-12.083,3.883-12.786,10.241c-0.473,4.277-0.815,8.573-1.043,12.857H24.326
		c-6.398,0-11.584,5.186-11.584,11.584c0,6.398,5.186,11.584,11.584,11.584h11.888c5.518,105.906,86.256,192.221,189.668,206.436
		v97.056h-90.765c-6.398,0-11.584,5.187-11.584,11.584c0,6.397,5.186,11.584,11.584,11.584H372.25
		c6.398,0,11.584-5.187,11.584-11.584c0-6.397-5.186-11.584-11.584-11.584h-86.132v-97.056
		c103.412-14.214,184.15-100.529,189.668-206.437h11.888c6.398,0,11.584-5.186,11.584-11.584S494.072,162.172,487.674,162.172z
		 M256,23.167c83.034,0,150.588,67.553,150.588,150.588S339.034,324.344,256,324.344s-150.588-67.553-150.588-150.588
		S172.966,23.167,256,23.167z M262.95,488.833h-13.9v-95.107c2.309,0.073,4.624,0.12,6.95,0.12c2.326,0,4.642-0.049,6.95-0.12
		V488.833z M273.37,369.904c-0.01,0.001-0.022,0.001-0.034,0.002c-5.714,0.502-11.493,0.773-17.336,0.773
		c-5.843,0-11.622-0.271-17.337-0.773c-0.012-0.001-0.022-0.001-0.034-0.002c-96.673-8.491-173.522-87.123-179.202-184.564h23.213
		C88.622,275.766,164.084,347.511,256,347.511s167.378-71.745,173.361-162.172h23.213
		C446.891,282.78,370.044,361.413,273.37,369.904z"/>
	<path style="fill:#000030;" d="M235.025,171.974c2.262,2.261,5.227,3.393,8.191,3.393s5.93-1.132,8.191-3.393l82.485-82.484
		c4.523-4.523,4.523-11.858,0-16.383c-4.523-4.521-11.857-4.521-16.383,0l-82.484,82.484
		C230.502,160.116,230.502,167.451,235.025,171.974z"/>
	<path style="fill:#000030;" d="M202.262,188.357l-46.911,46.909c-4.523,4.523-4.523,11.858-0.001,16.383
		c2.262,2.261,5.227,3.393,8.191,3.393s5.93-1.132,8.191-3.393l46.911-46.909c4.523-4.523,4.525-11.858,0.001-16.383
		C214.12,183.835,206.785,183.833,202.262,188.357z"/>
	<path style="fill:#000030;" d="M274.866,50.223c-4.523-4.522-11.858-4.522-16.383,0L132.468,176.24
		c-4.523,4.523-4.523,11.858,0,16.383c2.262,2.261,5.227,3.393,8.191,3.393c2.964,0,5.93-1.132,8.191-3.393L274.866,66.606
		C279.39,62.083,279.39,54.748,274.866,50.223z"/>
</g>
<g>
</g>
<g>
</g>
<g>
</g>
<g>
</g>
<g>
</g>
<g>
</g>
<g>
</g>
<g>
</g>
<g>
</g>
<g>
</g>
<g>
</g>
<g>
</g>
<g>
</g>
<g>
</g>
<g>
</g>
</svg>
