<?xml version="1.0" encoding="iso-8859-1"?>
<!-- Generator: Adobe Illustrator 19.0.0, SVG Export Plug-In . SVG Version: 6.00 Build 0)  -->
<svg version="1.1" id="Layer_1" xmlns="http://www.w3.org/2000/svg" xmlns:xlink="http://www.w3.org/1999/xlink" x="0px" y="0px"
	 viewBox="0 0 512 512" style="enable-background:new 0 0 512 512;" xml:space="preserve">
<g>
	<path style="fill:#FF757C;" d="M208.86,393.492h-58.364c-13.947,0-25.253-11.307-25.253-25.253V143.762
		c0-13.947,11.307-25.253,25.253-25.253h58.364c13.947,0,25.253,11.307,25.253,25.253v224.475
		C234.114,382.185,222.808,393.492,208.86,393.492z"/>
	<path style="fill:#FF757C;" d="M361.504,393.492H303.14c-13.947,0-25.253-11.307-25.253-25.253V143.762
		c0-13.947,11.307-25.253,25.253-25.253h58.364c13.947,0,25.253,11.307,25.253,25.253v224.475
		C386.757,382.185,375.451,393.492,361.504,393.492z"/>
</g>
<g>
	<path style="fill:#603813;" d="M501.801,241.873H396.956v-98.11c0-19.549-15.904-35.452-35.452-35.452h-58.365
		c-19.549,0-35.452,15.904-35.452,35.452v98.11h-23.375v-98.11c0-19.549-15.904-35.452-35.452-35.452h-58.364
		c-19.549,0-35.452,15.904-35.452,35.452v98.11H10.199C4.566,241.873,0,246.44,0,252.072s4.566,10.199,10.199,10.199h104.845
		v105.967c0,19.549,15.904,35.452,35.452,35.452h58.364c19.549,0,35.452-15.904,35.452-35.452V262.271h23.375v105.967
		c0,19.549,15.904,35.452,35.452,35.452h58.365c19.549,0,35.452-15.904,35.452-35.452V262.271h104.844
		c5.632,0,10.199-4.567,10.199-10.199C512,246.44,507.433,241.873,501.801,241.873z M223.914,368.239
		c0,8.301-6.754,15.054-15.054,15.054h-58.364c-8.301,0-15.054-6.753-15.054-15.054V143.762c0-8.301,6.754-15.054,15.054-15.054
		h58.364c8.301,0,15.054,6.753,15.054,15.054V368.239z M376.558,368.239c0,8.301-6.753,15.054-15.054,15.054h-58.365
		c-8.301,0-15.054-6.753-15.054-15.054V143.762c0-8.301,6.753-15.054,15.054-15.054h58.365c8.301,0,15.054,6.753,15.054,15.054
		V368.239z"/>
	<path style="fill:#603813;" d="M152.988,284.558c-5.633,0-10.199,4.567-10.199,10.199v71.394c0,5.632,4.566,10.199,10.199,10.199
		s10.199-4.567,10.199-10.199v-71.394C163.187,289.125,158.621,284.558,152.988,284.558z"/>
	<path style="fill:#603813;" d="M152.988,247.841c-5.633,0-10.199,4.567-10.199,10.199v6.12c0,5.632,4.566,10.199,10.199,10.199
		s10.199-4.567,10.199-10.199v-6.12C163.187,252.408,158.621,247.841,152.988,247.841z"/>
</g>
<g>
</g>
<g>
</g>
<g>
</g>
<g>
</g>
<g>
</g>
<g>
</g>
<g>
</g>
<g>
</g>
<g>
</g>
<g>
</g>
<g>
</g>
<g>
</g>
<g>
</g>
<g>
</g>
<g>
</g>
</svg>
