<?xml version="1.0" encoding="iso-8859-1"?>
<!-- Generator: Adobe Illustrator 19.0.0, SVG Export Plug-In . SVG Version: 6.00 Build 0)  -->
<svg version="1.1" id="Layer_1" xmlns="http://www.w3.org/2000/svg" xmlns:xlink="http://www.w3.org/1999/xlink" x="0px" y="0px"
	 viewBox="0 0 512.001 512.001" style="enable-background:new 0 0 512.001 512.001;" xml:space="preserve">
<g>
	<path style="fill:#5AB8FF;" d="M134.808,55.117c-59.649,59.594-59.693,156.259-0.098,215.91c4.027,4.031,8.229,7.781,12.57,11.266
		c-1.977-15.444,2.956-31.603,14.823-43.458c13.536-13.521,32.66-18.023,49.927-13.532c0.223-23.699,9.376-47.331,27.467-65.405
		c18.09-18.074,41.728-27.203,65.427-27.406c-4.474-17.271,0.045-36.393,13.579-49.916c11.865-11.853,28.028-16.774,43.47-14.782
		c-3.483-4.346-7.227-8.551-11.255-12.581C291.126-4.435,194.459-4.479,134.808,55.117z"/>
	<path style="fill:#5AB8FF;" d="M330.601,255.326l-56.002-56.07l32.329-32.302l56.001,56.072L330.601,255.326z"/>
</g>
<path d="M429.271,494.161L341.097,406V259.61l5.661-5.656l5.105,5.11c2.041,2.042,4.716,3.064,7.392,3.064
	c2.673,0,5.346-1.02,7.385-3.057c4.082-4.079,4.085-10.695,0.005-14.778l-5.104-5.108l8.773-8.766
	c4.081-4.078,4.086-10.692,0.008-14.776l-34.849-34.894c-0.019-0.019-0.033-0.039-0.051-0.057c-0.019-0.019-0.039-0.032-0.056-0.051
	l-21.043-21.07c-1.959-1.961-4.616-3.065-7.387-3.066c-0.002,0-0.003,0-0.005,0c-2.769,0-5.426,1.1-7.385,3.057l-24.962,24.941
	l-22.213-22.213c14.752-12.355,33.179-19.182,52.646-19.348c3.217-0.027,6.243-1.536,8.201-4.089
	c1.958-2.553,2.632-5.866,1.824-8.981c-3.69-14.241,0.468-29.531,10.849-39.903c7.847-7.84,18.283-12.156,29.385-12.156
	c1.787,0,3.592,0.115,5.363,0.344c4.227,0.55,8.359-1.53,10.447-5.246c2.087-3.716,1.708-8.326-0.956-11.651
	c-3.783-4.72-7.826-9.239-12.017-13.431C327.296,16.986,286.315,0,242.716,0c-43.543,0-84.488,16.949-115.293,47.726
	c-63.629,63.571-63.676,167.056-0.107,230.685c4.202,4.207,8.719,8.255,13.424,12.032c1.896,1.522,4.212,2.3,6.542,2.3
	c0.016,0,0.03,0,0.046,0c5.758-0.015,10.423-4.686,10.423-10.449c0-0.661-0.062-1.308-0.179-1.936
	c-1.441-12.697,2.883-25.105,11.916-34.129c7.848-7.841,18.283-12.158,29.383-12.158c3.556,0,7.099,0.453,10.53,1.345
	c3.116,0.815,6.427,0.141,8.983-1.816c2.555-1.956,4.066-4.981,4.096-8.198c0.163-17.394,5.656-33.952,15.645-47.8l64.187,64.187
	l17.888,17.911V406l-88.176,88.162c-4.081,4.079-4.081,10.696-0.001,14.777c2.041,2.041,4.715,3.062,7.39,3.062
	c2.674,0,5.348-1.021,7.387-3.06l44.802-44.795l28.598,21.697v15.695c0,5.77,4.678,10.449,10.449,10.449
	c5.771,0,10.449-4.679,10.449-10.449v-15.695l28.598-21.697l44.8,44.794c2.041,2.041,4.714,3.06,7.387,3.06
	c2.674,0,5.349-1.021,7.389-3.062C433.351,504.857,433.351,498.241,429.271,494.161z M339.392,231.773
	c-0.004,0.005-0.009,0.008-0.014,0.013c-0.004,0.004-0.007,0.009-0.013,0.014l-8.749,8.741l-14.587-14.586l-5.555-5.563
	l17.545-17.53l20.133,20.159L339.392,231.773z M306.92,181.733l6.331,6.339l-17.545,17.531l-6.333-6.339L306.92,181.733z
	 M202.368,213.27c-1.164-0.066-2.331-0.098-3.498-0.098c-16.677,0-32.357,6.489-44.152,18.271
	c-8.011,8.004-13.559,17.775-16.315,28.356c-51.697-55.728-50.424-143.127,3.791-197.291c26.858-26.832,62.557-41.61,100.522-41.61
	c36.237,0,70.401,13.458,96.789,38.012c-10.644,2.755-20.405,8.304-28.386,16.275c-12.636,12.624-19.137,30.089-18.206,47.633
	c-22.96,2.806-44.213,13.115-60.801,29.688C215.525,169.078,205.195,190.32,202.368,213.27z M306.518,449.231l13.681-13.68v24.059
	L306.518,449.231z M341.096,459.609v-24.057l13.681,13.679L341.096,459.609z"/>
<path d="M159.039,85.434c-3.662-4.46-10.246-5.106-14.706-1.444c-4.46,3.662-5.106,10.247-1.444,14.707l3.031,3.692
	c2.066,2.515,5.061,3.817,8.081,3.817c2.333,0,4.681-0.777,6.625-2.373c4.46-3.662,5.106-10.247,1.444-14.707L159.039,85.434z"/>
<path d="M183.985,115.807c-3.661-4.459-10.246-5.105-14.706-1.444c-4.46,3.662-5.106,10.247-1.444,14.707l28.209,34.352
	c2.066,2.515,5.061,3.817,8.081,3.817c2.333,0,4.681-0.777,6.625-2.373c4.46-3.662,5.106-10.247,1.444-14.707L183.985,115.807z"/>
<g>
</g>
<g>
</g>
<g>
</g>
<g>
</g>
<g>
</g>
<g>
</g>
<g>
</g>
<g>
</g>
<g>
</g>
<g>
</g>
<g>
</g>
<g>
</g>
<g>
</g>
<g>
</g>
<g>
</g>
</svg>
