<?xml version="1.0" encoding="iso-8859-1"?>
<!-- Generator: Adobe Illustrator 19.0.0, SVG Export Plug-In . SVG Version: 6.00 Build 0)  -->
<svg version="1.1" id="Layer_1" xmlns="http://www.w3.org/2000/svg" xmlns:xlink="http://www.w3.org/1999/xlink" x="0px" y="0px"
	 viewBox="0 0 510 510" style="enable-background:new 0 0 510 510;" xml:space="preserve">
<g>
	<path style="fill:#7D8B95;" d="M28,147.4c-12,0-24,10.8-28,23.2v152c4,12,16,21.2,28,21.2h340v-196H28V147.4z"/>
	<path style="fill:#7D8B95;" d="M46,361.4c6.4,0,11.6-6,13.2-14H32.4C34.4,355.4,39.6,361.4,46,361.4z"/>
	<path style="fill:#7D8B95;" d="M452.8,347.4c1.6,8,7.2,14,13.2,14s11.6-6,13.2-14H478H452.8z"/>
</g>
<g>
	<rect x="40" y="191.4" style="fill:#E8E3E3;" width="248" height="16"/>
	<rect x="40" y="235.4" style="fill:#E8E3E3;" width="248" height="16"/>
</g>
<path style="fill:#AEB1B4;" d="M484,147.4h-2H368v196h116c1.2,0,1.6,0.4,2.8,0c10.4-2,17.2-10.4,17.2-21.2v-150v-2
	C504,158.2,496,147.4,484,147.4z"/>
<g>
	<circle style="fill:#F4EFEF;" cx="324" cy="198.6" r="8"/>
	<circle style="fill:#F4EFEF;" cx="324" cy="242.6" r="8"/>
</g>
<path style="fill:#61C2AB;" d="M442,270.6c-12,0-22,10-22,22s10,22,22,22s22-10,22-22S454,270.6,442,270.6z"/>
<g>
	<circle style="fill:#F4EFEF;" cx="486" cy="292.6" r="6"/>
	<circle style="fill:#F4EFEF;" cx="398" cy="292.6" r="6"/>
</g>
<rect x="396" y="191.4" style="fill:#CDEEF9;" width="84" height="40"/>
<path d="M482,349.4H26c-6.8,0-12.8-2.4-17.2-7.2C4,337,1.6,329.4,2,321V169.4c-0.4-8,2-15.6,6.8-20.8c4.4-4.8,10.4-7.2,17.2-7.2h456
	c15.6,0,28,12.4,28,28v152C510,337,497.6,349.4,482,349.4z M26,149.4c-4.8,0-8.4,1.6-11.2,4.4c-3.2,3.6-5.2,8.8-4.8,15.2v152.4
	c-0.4,6.4,1.2,12,4.8,15.6c2.8,2.8,6.8,4.4,11.2,4.4h456c11.2,0,20-8.8,20-20v-152c0-11.2-8.8-20-20-20H26z"/>
<path d="M290,213.4H38c-2.4,0-4-1.6-4-4v-20c0-2.4,1.6-4,4-4h252c2.4,0,4,1.6,4,4v20C294,211.8,292.4,213.4,290,213.4z M42,205.4
	h244v-12H42V205.4z"/>
<path d="M290,257.4H38c-2.4,0-4-1.6-4-4v-20c0-2.4,1.6-4,4-4h252c2.4,0,4,1.6,4,4v20C294,255.8,292.4,257.4,290,257.4z M42,249.4
	h244v-12H42V249.4z"/>
<path d="M366,343.4c-2.4,0-4-1.6-4-4v-148c0-2.4,1.6-4,4-4s4,1.6,4,4v148C370,341.8,368.4,343.4,366,343.4z"/>
<path d="M366,159.4c-2.4,0-4-1.6-4-4v-8c0-2.4,1.6-4,4-4s4,1.6,4,4v8C370,157.8,368.4,159.4,366,159.4z"/>
<path d="M324,212.6c-7.6,0-14-6.4-14-14s6.4-14,14-14s14,6.4,14,14S331.6,212.6,324,212.6z M324,192.6c-3.2,0-6,2.8-6,6s2.8,6,6,6
	s6-2.8,6-6S327.2,192.6,324,192.6z"/>
<path d="M324,256.6c-7.6,0-14-6.4-14-14s6.4-14,14-14s14,6.4,14,14S331.6,256.6,324,256.6z M324,236.6c-3.2,0-6,2.8-6,6s2.8,6,6,6
	s6-2.8,6-6S327.2,236.6,324,236.6z"/>
<path d="M442,320.6c-15.6,0-28-12.4-28-28s12.4-28,28-28s28,12.4,28,28S457.6,320.6,442,320.6z M442,272.6c-11.2,0-20,8.8-20,20
	s8.8,20,20,20s20-8.8,20-20S453.2,272.6,442,272.6z"/>
<path d="M486,304.6c-6.8,0-12-5.2-12-12s5.2-12,12-12s12,5.2,12,12S492.8,304.6,486,304.6z M486,288.6c-2.4,0-4,1.6-4,4s1.6,4,4,4
	s4-1.6,4-4S488.4,288.6,486,288.6z"/>
<path d="M398,304.6c-6.8,0-12-5.2-12-12s5.2-12,12-12s12,5.2,12,12S404.8,304.6,398,304.6z M398,288.6c-2.4,0-4,1.6-4,4s1.6,4,4,4
	s4-1.6,4-4S400.4,288.6,398,288.6z"/>
<path d="M332,301.4H40c-2.4,0-4-1.6-4-4s1.6-4,4-4h292c2.4,0,4,1.6,4,4S334.4,301.4,332,301.4z"/>
<path d="M482,237.4h-88c-2.4,0-4-1.6-4-4v-44c0-2.4,1.6-4,4-4h88c2.4,0,4,1.6,4,4v44C486,235.8,484.4,237.4,482,237.4z M398,229.4
	h80v-36h-80V229.4z"/>
<path d="M46,368.6c-11.2,0-20-8.8-20-20c0-2.4,1.6-4,4-4s4,1.6,4,4c0,6.8,5.2,12,12,12s12-5.2,12-12c0-2.4,1.6-4,4-4s4,1.6,4,4
	C66,359.4,57.2,368.6,46,368.6z"/>
<path d="M466,368.6c-11.2,0-20-8.8-20-20c0-2.4,1.6-4,4-4s4,1.6,4,4c0,6.8,5.2,12,12,12s12-5.2,12-12c0-2.4,1.6-4,4-4s4,1.6,4,4
	C486,359.4,477.2,368.6,466,368.6z"/>
<g>
</g>
<g>
</g>
<g>
</g>
<g>
</g>
<g>
</g>
<g>
</g>
<g>
</g>
<g>
</g>
<g>
</g>
<g>
</g>
<g>
</g>
<g>
</g>
<g>
</g>
<g>
</g>
<g>
</g>
</svg>
