<?xml version="1.0" encoding="iso-8859-1"?>
<!-- Generator: Adobe Illustrator 19.0.0, SVG Export Plug-In . SVG Version: 6.00 Build 0)  -->
<svg version="1.1" id="Layer_1" xmlns="http://www.w3.org/2000/svg" xmlns:xlink="http://www.w3.org/1999/xlink" x="0px" y="0px"
	 viewBox="0 0 502.952 502.952" style="enable-background:new 0 0 502.952 502.952;" xml:space="preserve">
<path style="fill:#FFFFFF;" d="M35.531,458.814V123.366c0-19.421,13.241-35.31,30.014-35.31H43.476
	c-19.421,0-34.428,15.89-34.428,35.31v335.448c0,19.421,15.007,35.31,34.428,35.31h22.069
	C48.772,494.124,35.531,478.234,35.531,458.814"/>
<path style="fill:#FFA800;" d="M388.634,88.055v370.759c0,19.421-14.124,35.31-30.897,35.31h22.069
	c19.421,0,35.31-15.89,35.31-35.31V88.055"/>
<g>
	<path style="fill:#FFE100;" d="M415.117,88.055v370.759c0,19.421-14.124,35.31-30.897,35.31h22.069
		c19.421,0,35.31-15.89,35.31-35.31V88.055"/>
	<path style="fill:#FFE100;" d="M388.634,88.055H250.041V70.4h-76.8v17.655H65.545c-16.772,0-30.014,15.89-30.014,35.31v335.448
		c0,19.421,13.241,35.31,30.014,35.31h292.193c16.772,0,30.897-15.89,30.897-35.31V193.986V88.055z"/>
</g>
<path d="M379.807,502.952H44.359c-23.834,0-44.138-19.421-44.138-44.138V220.469c0-5.297,3.531-8.828,8.828-8.828
	s8.828,3.531,8.828,8.828v238.345c0,15.007,11.476,26.483,26.483,26.483h335.448c15.007,0,26.483-11.476,26.483-26.483V96.883
	H256.221c-5.297,0-8.828-3.531-8.828-8.828v-8.828h-70.621v8.828c0,5.297-3.531,8.828-8.828,8.828H44.359
	c-15.007,0-26.483,11.476-26.483,26.483v26.483c0,5.297-3.531,8.828-8.828,8.828s-8.828-3.531-8.828-8.828v-26.483
	c0-24.717,19.421-44.138,44.138-44.138h114.759V70.4c0-5.297,3.531-8.828,8.828-8.828h88.276c5.297,0,8.828,3.531,8.828,8.828v8.828
	h150.069c5.297,0,8.828,3.531,8.828,8.828v370.759C423.945,483.531,404.524,502.952,379.807,502.952z"/>
<path style="fill:#FDCC00;" d="M450.428,17.434L318.014,146.317l-18.538,56.497l38.841-24.717L469.848,46.566
	c9.71-9.71,25.6-26.483,15.89-37.076l-3.531-3.531C472.497-1.986,459.255,8.607,450.428,17.434"/>
<path style="fill:#FFA800;" d="M488.386,20.083c-1.766,8.828-11.476,19.421-18.538,26.483L338.317,178.097l-37.959,23.834v0.883
	l55.614-15.89L487.503,55.393C497.214,45.683,497.214,29.793,488.386,20.083"/>
<polygon style="fill:#3DB9F9;" points="159.117,458.814 185.6,458.814 185.6,352.883 159.117,352.883 "/>
<polygon style="fill:#63D3FD;" points="62.014,458.814 159.117,458.814 159.117,352.883 62.014,352.883 "/>
<path style="fill:#FDCC00;" d="M216.497,167.503l-4.414-8.828l-30.897,24.717c-5.297,4.414-13.241,0.883-13.241-6.179V70.4h61.793
	v97.103C229.738,174.566,221.793,171.917,216.497,167.503"/>
<path style="fill:#FFA800;" d="M229.738,70.4v97.103c0,1.766-0.883,3.531-0.883,4.414l15.007,11.476
	c5.297,4.414,13.241,0.883,13.241-6.179V70.4H229.738z"/>
<path d="M248.276,193.986c-3.531,0-7.062-0.883-10.593-3.531l-25.6-20.303l-25.6,20.303c-5.297,4.414-12.359,4.414-17.655,1.766
	c-6.179-2.648-9.71-8.828-9.71-15.007V70.4c0-5.297,3.531-8.828,8.828-8.828h88.276c5.297,0,8.828,3.531,8.828,8.828v106.814
	c0,6.179-3.531,12.359-9.71,15.007C253.572,193.986,250.924,193.986,248.276,193.986z M249.159,176.331L249.159,176.331
	L249.159,176.331z M176.772,79.228v96.221l30.014-23.834c3.531-2.648,7.945-2.648,10.593,0l30.014,23.834V79.228H176.772z"/>
<path d="M185.6,467.641H62.014c-5.297,0-8.828-3.531-8.828-8.828V352.883c0-5.297,3.531-8.828,8.828-8.828H185.6
	c5.297,0,8.828,3.531,8.828,8.828v105.931C194.428,464.11,190.897,467.641,185.6,467.641z M70.841,449.986h105.931V361.71H70.841
	V449.986z"/>
<path d="M150.29,397.021H97.324c-5.297,0-8.828-3.531-8.828-8.828s3.531-8.828,8.828-8.828h52.966c5.297,0,8.828,3.531,8.828,8.828
	S155.586,397.021,150.29,397.021z"/>
<path d="M132.634,432.331h-35.31c-5.297,0-8.828-3.531-8.828-8.828s3.531-8.828,8.828-8.828h35.31c5.297,0,8.828,3.531,8.828,8.828
	S137.931,432.331,132.634,432.331z"/>
<path id="SVGCleanerId_0" d="M300.359,211.641c-2.648,0-4.414-0.883-6.179-2.648c-2.648-2.648-2.648-6.179-1.766-8.828
	l18.538-56.497c0-0.883,0.883-2.648,1.766-3.531L446.014,8.607c12.359-11.476,31.779-11.476,43.255,0l3.531,3.531
	c13.241,13.241,13.241,35.31,0,49.434L362.152,193.103c-0.883,0.883-2.648,1.766-3.531,2.648l-55.614,15.89
	C302.124,211.641,301.241,211.641,300.359,211.641z M326.841,151.614l-12.359,37.959l37.076-10.593L481.324,49.214
	c7.062-7.062,7.062-17.655,0-23.834l-4.414-3.531c-5.297-5.297-13.241-5.297-18.538,0l0,0L326.841,151.614z M452.193,14.786
	L452.193,14.786L452.193,14.786z"/>
<path d="M461.903,89.821c-2.648,0-4.414-0.883-6.179-2.648l-37.076-37.076c-3.531-3.531-3.531-8.828,0-12.359
	c3.531-3.531,8.828-3.531,12.359,0l37.076,37.076c3.531,3.531,3.531,8.828,0,12.359C466.317,88.938,463.669,89.821,461.903,89.821z"
	/>
<g>
	<path id="SVGCleanerId_0_1_" d="M300.359,211.641c-2.648,0-4.414-0.883-6.179-2.648c-2.648-2.648-2.648-6.179-1.766-8.828
		l18.538-56.497c0-0.883,0.883-2.648,1.766-3.531L446.014,8.607c12.359-11.476,31.779-11.476,43.255,0l3.531,3.531
		c13.241,13.241,13.241,35.31,0,49.434L362.152,193.103c-0.883,0.883-2.648,1.766-3.531,2.648l-55.614,15.89
		C302.124,211.641,301.241,211.641,300.359,211.641z M326.841,151.614l-12.359,37.959l37.076-10.593L481.324,49.214
		c7.062-7.062,7.062-17.655,0-23.834l-4.414-3.531c-5.297-5.297-13.241-5.297-18.538,0l0,0L326.841,151.614z M452.193,14.786
		L452.193,14.786L452.193,14.786z"/>
</g>
<path d="M17.876,185.159c0-5.297-3.531-8.828-8.828-8.828s-8.828,3.531-8.828,8.828s3.531,8.828,8.828,8.828
	S17.876,190.455,17.876,185.159"/>
<g>
</g>
<g>
</g>
<g>
</g>
<g>
</g>
<g>
</g>
<g>
</g>
<g>
</g>
<g>
</g>
<g>
</g>
<g>
</g>
<g>
</g>
<g>
</g>
<g>
</g>
<g>
</g>
<g>
</g>
</svg>
