<?xml version="1.0" encoding="utf-8"?>
<!-- Generator: Adobe Illustrator 19.2.0, SVG Export Plug-In . SVG Version: 6.00 Build 0)  -->
<svg xmlns="http://www.w3.org/2000/svg" xmlns:xlink="http://www.w3.org/1999/xlink" version="1.1" id="cdplayer" x="0px" y="0px" viewBox="0 0 200 212" enable-background="new 0 0 200 212" xml:space="preserve" width="512" height="512">
<g>
	<path fill="#5CB0FF" d="M179.9609,164H20.0391c-4.5361,0-8.677-1.5657-12.0391-4.1057v27.8245C8,196.6953,15.5039,204,24.7305,204   h150.5391C184.4961,204,192,196.6953,192,187.7188v-27.8245C188.6379,162.4343,184.4971,164,179.9609,164z M156.0781,188H44v-8   h112.0781V188z"/>
	<path fill="#D0E8FF" d="M102,64c-12.1289,0-22,9.8711-22,22s9.8711,22,22,22s22-9.8711,22-22S114.1289,64,102,64z"/>
	<path fill="#D0E8FF" d="M179.9609,8H20.0391C13.4023,8,8,13.3672,8,19.9609V128v16.0391C8,150.6328,13.4023,156,20.0391,156   h159.9219C186.5977,156,192,150.6328,192,144.0391V128V19.9609C192,13.3672,186.5977,8,179.9609,8z M102,116   c-16.543,0-30-13.457-30-30s13.457-30,30-30s30,13.457,30,30S118.543,116,102,116z"/>
	<path fill="#1C71DA" d="M179.9609,0H20.0391C8.9883,0,0,8.9531,0,19.9609V128v16.0391v43.6797C0,201.1094,11.0938,212,24.7305,212   h150.5391C188.9062,212,200,201.1094,200,187.7188v-43.6797V128V19.9609C200,8.9531,191.0117,0,179.9609,0z M175.2695,204H24.7305   C15.5039,204,8,196.6953,8,187.7188v-27.8245c3.3621,2.54,7.5029,4.1057,12.0391,4.1057h159.9219   c4.5361,0,8.677-1.5657,12.0391-4.1057v27.8245C192,196.6953,184.4961,204,175.2695,204z M192,144.0391   C192,150.6328,186.5977,156,179.9609,156H20.0391C13.4023,156,8,150.6328,8,144.0391V128V19.9609C8,13.3672,13.4023,8,20.0391,8   h159.9219C186.5977,8,192,13.3672,192,19.9609V128V144.0391z"/>
	<path fill="#1C71DA" d="M102,56c-16.543,0-30,13.457-30,30s13.457,30,30,30s30-13.457,30-30S118.543,56,102,56z M102,108   c-12.1289,0-22-9.8711-22-22s9.8711-22,22-22s22,9.8711,22,22S114.1289,108,102,108z"/>
	<rect x="44" y="180" fill="#FFFFFF" width="112.0781" height="8"/>
</g>
<path fill="#FF5D5D" d="M56.252,63.8223c-1.0234,0-2.0479-0.3906-2.8281-1.1719c-1.5625-1.5615-1.5625-4.0947,0-5.6562  l14.1426-14.1416c1.5625-1.5625,4.0957-1.5625,5.6562,0c1.5625,1.5615,1.5625,4.0947,0,5.6562L59.0801,62.6504  C58.2988,63.4316,57.2754,63.8223,56.252,63.8223z"/>
<path fill="#FF5D5D" d="M70.3945,63.8223c-1.0234,0-2.0469-0.3906-2.8281-1.1719L53.4238,48.5088  c-1.5625-1.5615-1.5625-4.0947,0-5.6562c1.5605-1.5625,4.0938-1.5625,5.6562,0l14.1426,14.1416  c1.5625,1.5615,1.5625,4.0947,0,5.6562C72.4424,63.4316,71.418,63.8223,70.3945,63.8223z"/>
<path fill="#00D40B" d="M158.252,55.8223c-7.7197,0-14-6.2803-14-14s6.2803-14,14-14s14,6.2803,14,14  S165.9717,55.8223,158.252,55.8223z M158.252,35.8223c-3.3086,0-6,2.6914-6,6s2.6914,6,6,6s6-2.6914,6-6  S161.5605,35.8223,158.252,35.8223z"/>
<path fill="#FFC504" d="M167.5664,146.4492c-1.0234,0-2.0469-0.3906-2.8281-1.1719l-11.3145-11.3135  c-0.75-0.75-1.1719-1.7676-1.1719-2.8281s0.4219-2.0781,1.1719-2.8281l11.3145-11.3135c1.5625-1.5625,4.0938-1.5625,5.6562,0  l11.3135,11.3135c1.5625,1.5615,1.5625,4.0947,0,5.6562l-11.3135,11.3135C169.6143,146.0586,168.5898,146.4492,167.5664,146.4492z   M161.9092,131.1357l5.6572,5.6572l5.6562-5.6572l-5.6562-5.6572L161.9092,131.1357z"/>
</svg>
